<?xml version="1.0" standalone="no"?>
<!DOCTYPE svg PUBLIC "-//W3C//DTD SVG 20010904//EN"
 "http://www.w3.org/TR/2001/REC-SVG-20010904/DTD/svg10.dtd">
<svg version="1.0" xmlns="http://www.w3.org/2000/svg"
 width="512.000000pt" height="512.000000pt" viewBox="0 0 512.000000 512.000000"
 preserveAspectRatio="xMidYMid meet">
<metadata>
Created by potrace 1.11, written by Peter Selinger 2001-2013
</metadata>
<g transform="translate(0.000000,512.000000) scale(0.100000,-0.100000)"
fill="#000000" stroke="none">
<path d="M2315 5109 c-798 -82 -1502 -519 -1927 -1196 -469 -746 -515 -1705
-119 -2493 453 -902 1382 -1454 2381 -1417 831 32 1578 449 2042 1142 209 312
353 697 410 1100 17 118 17 512 0 630 -95 667 -405 1233 -903 1650 -364 304
-791 495 -1279 570 -126 19 -477 28 -605 14z m1073 -2211 c-3 -1142 -3 -1143
-25 -1220 -52 -184 -105 -279 -223 -399 -117 -119 -244 -188 -414 -227 -103
-23 -373 -22 -486 2 -303 64 -504 236 -590 503 -29 91 -50 211 -50 289 l0 44
124 0 123 0 7 -84 c27 -329 201 -513 526 -557 355 -47 638 133 733 468 l22 78
3 1123 3 1122 125 0 125 0 -3 -1142z"/>
</g>
</svg>
